<?xml version="1.0" encoding="utf-8"?>
<!-- Generator: Adobe Illustrator 16.0.0, SVG Export Plug-In . SVG Version: 6.00 Build 0)  -->
<!DOCTYPE svg PUBLIC "-//W3C//DTD SVG 1.1//EN" "http://www.w3.org/Graphics/SVG/1.1/DTD/svg11.dtd">
<svg version="1.1" id="Ebene_1" xmlns="http://www.w3.org/2000/svg" xmlns:xlink="http://www.w3.org/1999/xlink" x="0px" y="0px"
	 width="310px" height="127px" viewBox="0 0 310 127" enable-background="new 0 0 310 127" xml:space="preserve">
<path id="XMLID_27_" fill="#019CDE" d="M79.83,87.93c0,22.05-16.023,39.07-35.463,39.07c-9.929,0-17.148-3.342-22.109-8.983v3.211
	c0,2.043-1.661,3.7-3.709,3.7H3.709c-2.049,0-3.709-1.657-3.709-3.7V3.7C0,1.656,1.661,0,3.709,0l0,0
	c10.244,0,18.547,10.396,18.547,20.612v37.234c4.961-5.642,12.181-8.983,22.109-8.983C63.806,48.863,79.83,65.881,79.83,87.93z
	 M57.573,87.93c0-11.099-7.419-18.055-17.658-18.055c-10.239,0-17.658,6.956-17.658,18.055s7.419,18.056,17.658,18.056
	C50.154,105.986,57.573,99.029,57.573,87.93z"/>
<path id="XMLID_18_" fill="#019CDE" d="M161.27,87.93c0,1.925-0.148,3.699-0.299,5.478c-0.296,2.366-1.779,3.401-4.005,3.401
	h-18.104h-31.449c2.695,8.792,9.622,12.283,17.354,12.283c4.153,0,8.309-1.479,10.98-3.699c1.484-1.183,2.669-1.922,4.599-1.922
	l14.247-0.15c2.668,0,4.153,1.777,2.967,4.145C151.773,120.341,139.604,127,124.467,127c-24.63,0-40.361-17.021-40.361-39.07
	c0-22.049,16.322-39.067,39.77-39.067C145.539,48.863,161.27,65.586,161.27,87.93z M139.111,79.939
	c-2.295-8.419-8.839-11.394-15.386-11.394c-8.341,0-14.113,4.015-16.406,11.394H139.111z"/>
<path id="XMLID_15_" fill="#019CDE" d="M245.375,3.7v117.528c0,2.043-1.66,3.7-3.709,3.7h-14.838c-2.049,0-3.71-1.657-3.71-3.7
	v-3.211c-4.961,5.642-12.18,8.983-22.108,8.983c-19.438,0-35.464-17.021-35.464-39.07c0-22.049,16.026-39.067,35.464-39.067
	c9.929,0,17.147,3.341,22.108,8.983V20.612C223.119,10.396,231.423,0,241.667,0l0,0C243.715,0,245.375,1.656,245.375,3.7z
	 M223.119,87.93c0-11.099-7.419-18.055-17.657-18.055c-10.239,0-17.658,6.956-17.658,18.055s7.419,18.056,17.658,18.056
	C215.7,105.986,223.119,99.029,223.119,87.93z"/>
<path id="XMLID_9_" fill="#019CDE" d="M308.14,102.731c0,17.018-11.559,24.27-27.884,24.27c-15.133,0-28.786-6.807-30.565-22.495
	c-0.298-2.515,1.186-3.847,3.559-3.847h14.543c2.226,0,2.968,1.183,4.008,3.107c1.186,2.514,4.005,3.994,8.456,3.994
	c6.234,0,8.607-2.069,8.607-5.029c0-10.656-38.729-0.89-38.729-29.599c0-16.723,14.542-24.269,30.122-24.269
	c13.801,0,27.306,6.807,29.085,22.492c0.299,2.518-1.186,3.85-3.562,3.85h-14.542c-2.227,0-2.968-1.185-4.006-3.257
	c-1.04-2.367-3.562-3.847-6.976-3.847c-5.488,0-7.862,2.072-7.862,5.031C272.394,84.083,308.14,73.873,308.14,102.731z"/>
<path id="XMLID_8_" fill="#7BCBED" d="M212.895,37.861c-1.049-17.384-16.462-25.553-32.888-25.553
	c-6.126,0-11.85,0.842-16.766,2.934c-4.726,2.01-8.438,5.754-10.711,10.515c-0.906-1.887-2.045-3.694-3.411-5.243
	c-12.5-14.18-30.495-17.9-53.1-17.9c-31.69,0-61.991,9.836-63.543,35.11c0,0-0.138,2.933,1.875,2.933h115.741h5.116h53.258h2.324
	C210.792,40.656,212.895,40.211,212.895,37.861z"/>
<g id="XMLID_3_">
	<path id="XMLID_6_" fill="#FE746C" d="M255.6,37.528v-3.976c0-0.653,0.2-1.198,0.65-1.688l11.008-12.091
		c1.952-2.179,3.653-4.848,3.653-7.244c0-2.561-1.201-4.031-3.452-4.031c-2.102,0-3.353,0.926-3.753,2.941
		c-0.15,0.871-0.551,1.306-1.301,1.306h-5.555c-0.801,0-1.251-0.489-1.201-1.416C256.25,3.432,261.705,0,267.258,0
		c5.855,0,11.66,3.812,11.66,12.528c0,4.193-2.353,8.551-5.204,11.601l-6.055,6.373h10.508c0.801,0,1.251,0.49,1.251,1.361v5.665
		c0,0.871-0.45,1.362-1.251,1.362h-21.316C256.05,38.89,255.6,38.399,255.6,37.528z"/>
	<path id="XMLID_4_" fill="#FE746C" d="M310,25.833v5.444c0,0.889-0.46,1.389-1.276,1.389h-2.297V37.5
		c0,0.889-0.459,1.389-1.275,1.389h-5.717c-0.816,0-1.276-0.5-1.276-1.389v-4.833h-15.465c-0.816,0-1.275-0.5-1.275-1.389v-5.945
		c0-0.611,0.102-1.111,0.356-1.722L292.341,1c0.306-0.667,0.765-1,1.479-1h6.075c0.969,0,1.377,0.667,0.918,1.667l-10.616,22.778
		h7.962V17.5c0-0.889,0.46-1.389,1.276-1.389h5.717c0.816,0,1.275,0.5,1.275,1.389v6.944h2.297
		C309.541,24.444,310,24.945,310,25.833z"/>
</g>
</svg>
