<?xml version="1.0" encoding="utf-8"?>
<!-- Generator: Adobe Illustrator 19.2.1, SVG Export Plug-In . SVG Version: 6.00 Build 0)  -->
<svg version="1.1" id="layer" xmlns="http://www.w3.org/2000/svg" xmlns:xlink="http://www.w3.org/1999/xlink" x="0px" y="0px"
	 viewBox="0 0 652 652" style="enable-background:new 0 0 652 652;" xml:space="preserve">
<style type="text/css">
	.st0{fill:#318EEE;}
	.st1{fill:#0E214B;}
</style>
<path class="st0" d="M352.8,296c-4.7,0-8.5,3.8-8.5,8.5c0,4.7,3.8,8.5,8.5,8.5s8.5-3.8,8.5-8.5c0,0,0,0,0,0
	C361.3,299.8,357.5,296,352.8,296z M493.3,243.3c-4.7-0.5-8.8,3-9.3,7.6c-0.5,4.7,3,8.8,7.6,9.3c4.7,0.5,8.8-2.9,9.3-7.6
	C501.4,248,498,243.8,493.3,243.3C493.3,243.3,493.3,243.3,493.3,243.3z"/>
<path class="st1" d="M161.2,310.7c-3.6-13-8.1-29.2-2.3-55.4l-8.6-2.5c-16.1,44.9-57.2,88.7-87.8,93.9c-10.5,1.8-19-1.3-25.2-9
	c-6.9-8.5-8.1-19-3.6-31.2c3.9-10.6,12.1-21.9,22.6-30.8c14.2-12.1,28.9-17,34.1-11.2c3.3,3.7,2.2,13-2.8,22.8
	C80.9,300.2,68.6,312.4,53,317c-3.5,1-7.2,1.7-10.8,1.9c-0.1,1.5,0,3,0.2,4.5c0.5,2.6,2.9,4.4,5.6,3.9c3.1-0.5,6.2-1.2,9.2-2.2
	c17.3-5.7,30.9-19.4,38.2-33.7c6.9-13.6,7.5-26.2,1.5-32.9c-10.3-11.4-30.8-3-46.5,10.4c-11.6,9.9-20.8,22.5-25.2,34.5
	c-5.6,15.1-3.8,28.9,5.1,39.9c8.3,10.3,19.9,14.5,33.6,12.2c16.7-2.8,36-15.2,54.4-34.9c11.2-12,20.9-25.4,28.9-39.8
	c0.2,13.6,3.1,23.8,5.4,32.2c5.3,19-3.2,30.5-13.8,33.4c-2.6,0.7-5.4,0.9-8.1,0.6c-5.8-0.8-10.8-4.3-13.5-9.5
	c-2.3,2.1-4.6,4.1-6.9,6c4.9,7.9,13.6,12.7,22.9,12.7c0.8,0,1.5,0,2.3-0.1c1.9-0.1,3.7-0.4,5.5-0.9
	C155.6,351.1,168.1,335.4,161.2,310.7z M454.8,264.6c-7.2-8-17.2-12.3-28.9-12.3c-17.1,0-28.4,10.2-35.7,21.5l2.1-19.9h-8.9
	L368.1,399h8.9l6.9-65.8c2,4.8,4.8,9.2,8.4,12.9c6.2,6.3,14.7,9.8,23.6,9.5c29.2,0,47.2-25.8,49.9-51.3
	C467.4,288.7,463.4,274.2,454.8,264.6z M457,303.5c-2.2,21.6-17.1,43.4-41,43.4c-6.5,0.2-12.7-2.2-17.3-6.9
	c-11-11.2-13.3-32.5-13.3-35.6c1-4.3,12-43.2,40.5-43.2c9.1,0,16.9,3.2,22.4,9.3C455.2,278.2,458.4,290.3,457,303.5z M592,253.9
	l-2.2,21.3c-2-4.8-4.9-9.2-8.4-12.9c-6.2-6.3-14.7-9.8-23.6-9.5c-29.2,0-47.2,25.8-49.9,51.3c-1.6,15.7,2.4,30.3,11,39.8
	c7.2,8,17.2,12.3,28.9,12.3c17.1,0,28.4-10.2,35.7-21.4l-2.1,19.7h8.9l10.5-100.5L592,253.9z M547.9,347.3c-9.1,0-16.9-3.2-22.4-9.3
	c-7-7.7-10.2-19.7-8.8-32.9c2.2-21.6,17.1-43.4,41-43.4c6.5-0.2,12.7,2.3,17.3,6.9c11,11.2,13.3,32.5,13.3,35.6
	C587.4,308.4,576.4,347.3,547.9,347.3z M490.9,267.5c-1.5-0.2-3-0.6-4.4-1.2l-9.2,88.2h8.9l9.2-87.2
	C493.9,267.6,492.4,267.6,490.9,267.5z M220.3,356.1c-11.3,0.3-22.2-4.4-29.8-12.8c-8.9-9.8-12.9-24-11.2-39.9
	c3.1-29.4,24.3-50.7,50.6-50.7c14.2,0,25.7,6,32,16.6l-7.9,6.1c-4.3-8.2-13.2-12.9-24.2-12.9c-21.1,0-38.2,17.6-40.8,41.9
	c-1.3,13.1,1.7,24.5,8.7,32.3c5.7,6.3,14,9.8,22.5,9.6c12.9,0,23.4-5.4,29.7-15.3l8.3,5.3C250.2,349.1,236.7,356.1,220.3,356.1z
	 M352.8,320.1c-2.8,0-5.5-0.8-7.9-2.2c-5.8,12.7-17,29.4-35.7,29.4c-9.1,0-16.9-3.2-22.4-9.3c-7-7.7-10.1-19.7-8.8-32.9
	c2.2-21.6,17.1-43.4,41-43.4c6.5-0.3,12.7,2.2,17.3,6.8c5.6,5.7,9,14.1,10.9,21.3c1.7-0.7,3.6-1,5.5-1c2,0,3.9,0.4,5.7,1.1l3.8-35.9
	h-8.9l-2.2,21.3c-2-4.8-4.8-9.2-8.4-12.9c-6.2-6.3-14.7-9.8-23.6-9.5c-29.2,0-47.2,25.8-49.9,51.3c-1.7,15.7,2.4,30.3,11,39.8
	c7.2,8,17.2,12.3,28.9,12.3c17.1,0,28.4-10.2,35.7-21.5l-2.1,19.7h8.9l3.6-34.6C354.6,319.9,353.7,320.1,352.8,320.1z M612.7,260.8
	v5h-0.7v-5h-2.2v-0.7h5.2v0.7H612.7z M621.2,265.8l-0.1-4.9H621l-1.8,4.7h-0.9l-1.6-4.7h-0.1l-0.2,4.9h-0.7l0.2-5.7h1.3l1.5,4.8h0.1
	l1.7-4.8h1.2l0.2,5.7H621.2z"/>
</svg>
