<svg width="445" height="117" viewBox="0 0 445 117" fill="none" xmlns="http://www.w3.org/2000/svg">
<path d="M72.0215 103H9.57638C4.54742 103 0.470154 98.9639 0.470154 93.9856V38.7892C0.470154 35.5759 2.07844 32.5865 4.7712 30.7924L49.2129 1.15175C51.5122 -0.384322 54.4902 -0.384323 56.792 1.15419L101.234 30.7924C103.924 32.5889 105.53 35.5759 105.53 38.7868V102.925H94.2178V41.041C94.2178 40.15 93.7702 39.3175 93.0251 38.8209L54.5124 13.136C53.5976 12.5275 52.4024 12.5275 51.4901 13.136L12.9749 38.8233C12.2298 39.3199 11.7822 40.1524 11.7822 41.0434V89.1242C11.7822 90.6043 12.9921 91.802 14.4873 91.802H67.1106C68.6057 91.802 69.8156 90.6043 69.8156 89.1242V52.9182C69.8156 52.0272 69.3681 51.1946 68.623 50.698L54.5124 41.2868C53.5976 40.6783 52.4024 40.6783 51.4901 41.2868L37.3795 50.698C36.6344 51.1946 36.1868 52.0272 36.1868 52.9182V78.0504H24.8747V49.5442C24.8747 47.0295 26.1314 44.6925 28.2388 43.2903L49.5842 29.0542C51.6622 27.6959 54.3452 27.6959 56.4207 29.0542L56.4625 29.081L77.771 43.2927C79.876 44.6998 81.1302 47.0343 81.1302 49.5417V93.9832C81.1302 98.9614 77.0529 102.998 72.024 102.998L72.0215 103Z" fill="#14665F"/>
<path d="M163.558 95.1358C142.286 95.1358 128.234 81.0845 128.234 59.6172C128.234 38.7353 142.969 24.0985 164.339 24.0985C174.096 24.0985 182.976 27.7089 189.709 34.637L182.391 41.9554C177.804 37.3692 170.876 34.637 164.241 34.637C149.702 34.637 139.651 44.6876 139.651 59.6172C139.651 74.8395 149.019 84.5973 163.558 84.5973C170.389 84.5973 175.95 82.8409 180.829 79.0353V64.984H161.704V54.9334H191.368V83.9143C183.757 91.5254 174.78 95.1358 163.558 95.1358Z" fill="#14665F"/>
<path d="M219.398 94.7455C207.103 94.7455 199.102 85.9634 199.102 72.2048V45.5658H210.031V71.5218C210.031 80.0111 214.324 84.8901 221.35 84.8901C229.351 84.8901 234.718 79.0353 234.718 70.9363V45.5658H245.647V93.7697H235.889L235.791 87.5247C231.693 92.3061 226.034 94.7455 219.398 94.7455Z" fill="#14665F"/>
<path d="M277.881 95.1358C261.975 95.1358 251.73 85.0852 251.73 69.6678C251.73 54.7382 261.78 44.59 276.71 44.59C293.689 44.59 303.056 55.714 301.495 73.7661H262.951C263.829 80.7918 269.684 85.2804 278.174 85.2804C283.638 85.2804 289.102 83.3288 292.03 80.3039L298.665 86.7441C293.884 91.9157 286.175 95.1358 277.881 95.1358ZM263.049 65.2767H291.054C290.273 58.4462 285.004 54.0552 277.003 54.0552C269.391 54.0552 264.415 58.1535 263.049 65.2767Z" fill="#14665F"/>
<path d="M327.366 94.9407C319.267 94.9407 312.046 92.5988 305.606 87.8174L310.68 79.9136C314.974 83.3288 321.316 85.2804 327.659 85.2804C333.806 85.2804 337.319 83.3288 337.319 79.816C337.319 76.4007 334.197 74.7419 326.781 73.9612C314.193 72.7903 307.07 67.5211 307.07 59.1293C307.07 50.3472 315.461 44.3949 327.952 44.3949C335.27 44.3949 341.71 46.2489 347.077 49.9569L342.296 57.7632C338.002 55.031 333.416 53.6649 328.439 53.6649C321.511 53.6649 317.803 55.6164 317.803 59.1293C317.803 62.2518 320.633 63.9106 327.659 64.6913C341.905 66.2525 348.15 70.8387 348.15 79.9136C348.15 88.8908 339.856 94.9407 327.366 94.9407Z" fill="#14665F"/>
<path d="M377.83 94.4528C367.877 94.4528 362.022 88.6956 362.022 77.1813V54.8358H352.948V45.5658H362.022V32.9782L372.854 31.8072V45.5658H386.71V54.8358H372.854V77.1813C372.854 82.0603 375.098 84.7925 379.586 84.7925C381.538 84.7925 383.782 84.207 385.636 83.3288L388.661 92.1109C384.953 93.7697 381.831 94.4528 377.83 94.4528Z" fill="#14665F"/>
<path d="M402.179 116.018L411.937 93.477L392.909 45.5658H404.619L413.011 67.521L417.987 81.3772L423.549 67.521L432.624 45.5658H444.333L414.084 116.018H402.179Z" fill="#14665F"/>
</svg>
