<svg width="1200" height="388" viewBox="0 0 1200 388" fill="none" xmlns="http://www.w3.org/2000/svg">
<path d="M285.758 145.176C291.432 145.176 296.724 146.25 301.632 148.397C306.693 150.391 310.987 153.382 314.515 157.37C318.043 161.204 320.803 165.882 322.797 171.403C324.944 176.925 326.018 183.136 326.018 190.038V252.154H299.561V193.489C299.561 186.587 297.491 181.066 293.35 176.925C289.362 172.63 284.147 170.483 277.705 170.483C271.264 170.483 265.972 172.63 261.831 176.925C257.844 181.066 255.85 186.587 255.85 193.489V252.154H229.393V107.217H255.85V156.679C257.844 154.532 260.221 152.615 262.982 150.928C265.436 149.548 268.503 148.244 272.184 147.017C276.018 145.79 280.543 145.176 285.758 145.176Z" fill="#230B41"/>
<path d="M370.969 199.24C370.969 207.983 373.5 214.961 378.561 220.176C383.623 225.39 389.911 227.998 397.426 227.998C404.941 227.998 411.23 225.39 416.291 220.176C421.352 214.961 423.883 207.983 423.883 199.24C423.883 190.498 421.352 183.52 416.291 178.305C411.23 173.09 404.941 170.483 397.426 170.483C389.911 170.483 383.623 173.09 378.561 178.305C373.5 183.52 370.969 190.498 370.969 199.24ZM450.34 199.24C450.34 206.756 448.883 213.811 445.969 220.406C443.208 226.847 439.374 232.522 434.466 237.43C429.711 242.338 424.113 246.249 417.671 249.163C411.383 251.924 404.635 253.304 397.426 253.304C390.218 253.304 383.392 251.924 376.951 249.163C370.663 246.249 365.064 242.338 360.157 237.43C355.402 232.522 351.568 226.847 348.654 220.406C345.893 213.811 344.512 206.756 344.512 199.24C344.512 191.725 345.893 184.747 348.654 178.305C351.568 171.71 355.402 165.958 360.157 161.05C365.064 156.143 370.663 152.308 376.951 149.548C383.392 146.633 390.218 145.176 397.426 145.176C404.635 145.176 411.383 146.633 417.671 149.548C424.113 152.308 429.711 156.143 434.466 161.05C439.374 165.958 443.208 171.71 445.969 178.305C448.883 184.747 450.34 191.725 450.34 199.24Z" fill="#230B41"/>
<path d="M489.342 218.795C489.955 222.323 491.642 225.314 494.403 227.768C497.164 230.222 500.845 231.449 505.446 231.449C510.047 231.449 513.651 230.298 516.259 227.998C519.02 225.544 520.4 222.86 520.4 219.946C520.4 217.492 519.02 215.575 516.259 214.194C513.651 212.814 510.354 211.587 506.366 210.513C502.379 209.286 498.007 208.059 493.253 206.832C488.652 205.605 484.357 203.841 480.37 201.541C476.382 199.087 473.008 196.019 470.247 192.339C467.64 188.504 466.336 183.52 466.336 177.385C466.336 173.09 467.18 169.026 468.867 165.192C470.707 161.204 473.314 157.753 476.689 154.839C480.063 151.925 484.051 149.624 488.652 147.937C493.253 146.097 498.468 145.176 504.296 145.176C517.026 145.176 526.765 148.244 533.513 154.379C540.415 160.514 544.479 168.182 545.706 177.385H520.4C519.786 175.084 518.099 172.784 515.339 170.483C512.731 168.182 509.434 167.032 505.446 167.032C501.458 167.032 498.314 168.029 496.014 170.023C493.866 172.017 492.793 174.471 492.793 177.385C492.793 179.839 494.096 181.756 496.704 183.136C499.465 184.517 502.839 185.82 506.826 187.047C510.814 188.121 515.109 189.348 519.71 190.728C524.464 191.955 528.835 193.796 532.823 196.25C536.811 198.704 540.108 201.924 542.716 205.912C545.476 209.746 546.857 214.808 546.857 221.096C546.857 225.39 545.936 229.531 544.096 233.519C542.255 237.353 539.648 240.728 536.274 243.642C532.9 246.556 528.759 248.933 523.851 250.774C519.096 252.461 513.728 253.304 507.747 253.304C493.943 253.304 483.437 250.16 476.229 243.872C469.173 237.584 465.109 229.225 464.035 218.795H489.342Z" fill="#230B41"/>
<path d="M620.458 145.176C627.053 145.176 633.341 146.557 639.322 149.317C645.304 151.925 650.519 155.682 654.967 160.59C659.568 165.345 663.172 171.02 665.779 177.615C668.54 184.21 669.92 191.418 669.92 199.24C669.92 207.062 668.54 214.271 665.779 220.866C663.172 227.461 659.568 233.212 654.967 238.12C650.519 242.875 645.304 246.632 639.322 249.393C633.341 252.001 627.053 253.304 620.458 253.304C616.01 253.304 612.099 252.767 608.725 251.694C605.504 250.62 602.666 249.47 600.212 248.243C597.452 246.709 594.998 244.945 592.851 242.952V288.963H566.394V146.327H585.949L590.55 156.679C592.851 154.532 595.535 152.615 598.602 150.928C601.209 149.548 604.354 148.244 608.034 147.017C611.715 145.79 615.856 145.176 620.458 145.176ZM590.55 199.24C590.55 207.983 593.081 214.961 598.142 220.176C603.203 225.39 609.491 227.998 617.007 227.998C624.522 227.998 630.81 225.39 635.872 220.176C640.933 214.961 643.464 207.983 643.464 199.24C643.464 190.498 640.933 183.52 635.872 178.305C630.81 173.09 624.522 170.483 617.007 170.483C609.491 170.483 603.203 173.09 598.142 178.305C593.081 183.52 590.55 190.498 590.55 199.24Z" fill="#230B41"/>
<path d="M715.968 252.154H689.511V146.327H715.968V252.154ZM703.315 132.523C699.327 132.523 695.8 131.066 692.732 128.152C689.818 125.085 688.361 121.557 688.361 117.569C688.361 113.582 689.818 110.131 692.732 107.217C695.8 104.149 699.327 102.615 703.315 102.615C707.303 102.615 710.753 104.149 713.668 107.217C716.735 110.131 718.269 113.582 718.269 117.569C718.269 121.557 716.735 125.085 713.668 128.152C710.753 131.066 707.303 132.523 703.315 132.523Z" fill="#230B41"/>
<path d="M752.688 121.02H775.694V146.327H798.7V170.483H775.694V214.194C775.694 218.795 776.997 222.476 779.605 225.237C782.365 227.844 786.046 229.148 790.647 229.148C791.874 229.148 792.871 229.148 793.638 229.148C794.405 228.995 795.095 228.841 795.709 228.688C796.322 228.535 796.936 228.304 797.549 227.998V251.004C796.476 251.464 795.249 251.847 793.868 252.154C791.261 252.921 788.27 253.304 784.896 253.304C779.681 253.304 774.85 252.461 770.402 250.774C766.108 248.933 762.35 246.326 759.129 242.952C756.062 239.577 753.608 235.59 751.767 230.988C750.08 226.387 749.237 221.173 749.237 215.344V170.483H733.133V148.627H740.034C748.47 148.627 752.688 144.41 752.688 135.974V121.02Z" fill="#230B41"/>
<path d="M861.957 145.176C867.938 145.176 873.46 146.25 878.521 148.397C883.582 150.391 887.953 153.228 891.634 156.909C895.315 160.59 898.153 164.962 900.147 170.023C902.294 175.084 903.367 180.606 903.367 186.587V252.154H883.812L879.211 241.801C876.757 243.948 874.073 245.866 871.159 247.553C868.552 249.086 865.408 250.467 861.727 251.694C858.046 252.767 853.905 253.304 849.304 253.304C837.801 253.304 828.982 250.544 822.847 245.022C816.712 239.347 813.644 232.139 813.644 223.397C813.644 218.182 814.641 213.427 816.635 209.133C818.782 204.685 822.31 200.927 827.218 197.86C832.126 194.639 838.567 192.185 846.543 190.498C854.672 188.658 864.794 187.737 876.911 187.737C876.911 181.909 875.3 177.385 872.079 174.164C869.012 170.943 864.871 169.333 859.656 169.333C856.129 169.333 853.291 169.946 851.144 171.173C849.15 172.4 847.54 173.704 846.313 175.084C844.932 176.771 844.012 178.688 843.552 180.836H817.095C817.709 175.928 819.089 171.326 821.236 167.032C823.537 162.738 826.604 158.98 830.439 155.759C834.273 152.538 838.798 150.008 844.012 148.167C849.38 146.173 855.362 145.176 861.957 145.176ZM853.905 232.599C860.807 232.599 866.328 230.605 870.469 226.617C874.763 222.476 876.911 217.185 876.911 210.743V206.142C869.089 206.142 862.8 206.526 858.046 207.292C853.291 207.906 849.534 208.903 846.773 210.283C844.166 211.51 842.402 213.044 841.482 214.884C840.561 216.725 840.101 218.795 840.101 221.096C840.101 224.01 841.405 226.694 844.012 229.148C846.62 231.449 849.917 232.599 853.905 232.599Z" fill="#230B41"/>
<path d="M981.498 253.304C976.896 253.304 972.755 252.767 969.074 251.694C965.393 250.467 962.249 249.086 959.642 247.553C956.575 245.866 953.891 243.948 951.59 241.801L946.989 252.154H927.434V107.217H953.891V155.529C956.038 153.689 958.492 152.002 961.252 150.468C963.706 149.241 966.544 148.091 969.765 147.017C973.139 145.79 977.05 145.176 981.498 145.176C988.093 145.176 994.381 146.557 1000.36 149.317C1006.34 151.925 1011.56 155.682 1016.01 160.59C1020.61 165.345 1024.21 171.02 1026.82 177.615C1029.58 184.21 1030.96 191.418 1030.96 199.24C1030.96 207.062 1029.58 214.271 1026.82 220.866C1024.21 227.461 1020.61 233.212 1016.01 238.12C1011.56 242.875 1006.34 246.632 1000.36 249.393C994.381 252.001 988.093 253.304 981.498 253.304ZM951.59 199.24C951.59 207.983 954.121 214.961 959.182 220.176C964.243 225.39 970.531 227.998 978.047 227.998C985.562 227.998 991.85 225.39 996.912 220.176C1001.97 214.961 1004.5 207.983 1004.5 199.24C1004.5 190.498 1001.97 183.52 996.912 178.305C991.85 173.09 985.562 170.483 978.047 170.483C970.531 170.483 964.243 173.09 959.182 178.305C954.121 183.52 951.59 190.498 951.59 199.24Z" fill="#230B41"/>
<path d="M1077.01 252.154H1050.55V107.217H1077.01V252.154Z" fill="#230B41"/>
<path d="M1196.55 219.946C1195.17 223.933 1193.02 227.921 1190.11 231.909C1187.35 235.896 1183.9 239.501 1179.75 242.721C1175.77 245.789 1171.17 248.32 1165.95 250.313C1160.89 252.307 1155.37 253.304 1149.39 253.304C1142.18 253.304 1135.35 251.924 1128.91 249.163C1122.62 246.249 1117.03 242.338 1112.12 237.43C1107.36 232.522 1103.53 226.847 1100.61 220.406C1097.85 213.811 1096.47 206.756 1096.47 199.24C1096.47 191.725 1097.85 184.747 1100.61 178.305C1103.53 171.71 1107.36 165.958 1112.12 161.05C1117.03 156.143 1122.62 152.308 1128.91 149.548C1135.35 146.633 1142.18 145.176 1149.39 145.176C1156.29 145.176 1162.81 146.48 1168.94 149.087C1175.08 151.695 1180.44 155.376 1185.05 160.13C1189.65 164.885 1193.25 170.636 1195.86 177.385C1198.62 183.98 1200 191.265 1200 199.24C1200 200.467 1199.92 201.694 1199.77 202.921C1199.62 203.995 1199.46 205.068 1199.31 206.142C1199.16 207.369 1199 208.519 1198.85 209.593H1125.23C1126.46 214.808 1129.07 219.179 1133.05 222.706C1137.04 226.234 1142.49 227.998 1149.39 227.998C1152.91 227.998 1155.83 227.614 1158.13 226.847C1160.58 226.081 1162.65 225.16 1164.34 224.087C1166.18 222.86 1167.71 221.479 1168.94 219.946H1196.55ZM1149.39 170.483C1142.49 170.483 1136.81 172.477 1132.36 176.464C1128.07 180.452 1125.31 185.36 1124.08 191.188H1174.69C1173.47 185.36 1170.63 180.452 1166.18 176.464C1161.89 172.477 1156.29 170.483 1149.39 170.483Z" fill="#230B41"/>
<path fill-rule="evenodd" clip-rule="evenodd" d="M83.9812 252.154C129.954 252.154 167.222 214.959 167.222 169.077C167.222 123.195 129.954 86 83.9812 86C38.0083 86 0.73999 123.195 0.73999 169.077C0.73999 214.959 38.0083 252.154 83.9812 252.154ZM83.9815 218.923C111.565 218.923 133.926 196.606 133.926 169.077C133.926 141.547 111.565 119.231 83.9815 119.231C56.3978 119.231 34.0368 141.547 34.0368 169.077C34.0368 196.606 56.3978 218.923 83.9815 218.923ZM133.926 285.385C133.926 276.208 126.473 268.769 117.278 268.769H50.6851C41.4905 268.769 34.0368 276.208 34.0368 285.385C34.0368 294.561 41.4905 302 50.6851 302H117.278C126.473 302 133.926 294.561 133.926 285.385Z" fill="#ED3C6A"/>
</svg>
